<mxfile host="www.draw.io" modified="2019-11-26T06:04:33.032Z" agent="Mozilla/5.0 (Windows NT 10.0; Win64; x64) AppleWebKit/537.36 (KHTML, like Gecko) Chrome/78.0.3904.108 Safari/537.36" etag="aAVjasjyxkgBrwEZDTx_" version="12.3.0" type="github" pages="1">
  <diagram id="Gq8x35JS6IbWeUD07Lk0" name="第 1 页">
    <mxGraphModel dx="1422" dy="806" grid="1" gridSize="10" guides="1" tooltips="1" connect="1" arrows="1" fold="1" page="1" pageScale="1" pageWidth="827" pageHeight="1169" math="0" shadow="0">
      <root>
        <mxCell id="0"/>
        <mxCell id="1" parent="0"/>
        <mxCell id="wam6xkqnB42MoOIPIA5k-1" value="浏览器" style="rounded=0;whiteSpace=wrap;html=1;" vertex="1" parent="1">
          <mxGeometry x="20" y="20" width="140" height="30" as="geometry"/>
        </mxCell>
        <mxCell id="wam6xkqnB42MoOIPIA5k-9" value="ai" style="rounded=0;whiteSpace=wrap;html=1;" vertex="1" parent="1">
          <mxGeometry x="300" y="20" width="140" height="30" as="geometry"/>
        </mxCell>
        <mxCell id="wam6xkqnB42MoOIPIA5k-10" value="ecs" style="rounded=0;whiteSpace=wrap;html=1;" vertex="1" parent="1">
          <mxGeometry x="610" y="20" width="140" height="30" as="geometry"/>
        </mxCell>
        <mxCell id="wam6xkqnB42MoOIPIA5k-11" value="" style="endArrow=none;html=1;entryX=0.5;entryY=1;entryDx=0;entryDy=0;" edge="1" parent="1" target="wam6xkqnB42MoOIPIA5k-1">
          <mxGeometry width="50" height="50" relative="1" as="geometry">
            <mxPoint x="90" y="520" as="sourcePoint"/>
            <mxPoint x="70" y="70" as="targetPoint"/>
          </mxGeometry>
        </mxCell>
        <mxCell id="wam6xkqnB42MoOIPIA5k-12" value="" style="endArrow=none;html=1;entryX=0.5;entryY=1;entryDx=0;entryDy=0;" edge="1" parent="1">
          <mxGeometry width="50" height="50" relative="1" as="geometry">
            <mxPoint x="370" y="97" as="sourcePoint"/>
            <mxPoint x="370" y="50" as="targetPoint"/>
          </mxGeometry>
        </mxCell>
        <mxCell id="wam6xkqnB42MoOIPIA5k-13" value="" style="endArrow=none;html=1;entryX=0.5;entryY=1;entryDx=0;entryDy=0;" edge="1" parent="1" source="wam6xkqnB42MoOIPIA5k-28">
          <mxGeometry width="50" height="50" relative="1" as="geometry">
            <mxPoint x="690" y="960" as="sourcePoint"/>
            <mxPoint x="680" y="50" as="targetPoint"/>
          </mxGeometry>
        </mxCell>
        <mxCell id="wam6xkqnB42MoOIPIA5k-15" value="" style="endArrow=classic;html=1;" edge="1" parent="1">
          <mxGeometry width="50" height="50" relative="1" as="geometry">
            <mxPoint x="90" y="110" as="sourcePoint"/>
            <mxPoint x="350" y="110" as="targetPoint"/>
          </mxGeometry>
        </mxCell>
        <mxCell id="wam6xkqnB42MoOIPIA5k-16" value="请求ai的url资源，需要传票据cookie" style="text;html=1;align=center;verticalAlign=middle;resizable=0;points=[];;autosize=1;" vertex="1" parent="1">
          <mxGeometry x="120" y="91" width="200" height="20" as="geometry"/>
        </mxCell>
        <mxCell id="wam6xkqnB42MoOIPIA5k-18" value="" style="endArrow=none;html=1;entryX=0.5;entryY=1;entryDx=0;entryDy=0;" edge="1" parent="1" source="wam6xkqnB42MoOIPIA5k-45" target="wam6xkqnB42MoOIPIA5k-19">
          <mxGeometry width="50" height="50" relative="1" as="geometry">
            <mxPoint x="370" y="520" as="sourcePoint"/>
            <mxPoint x="370" y="217" as="targetPoint"/>
          </mxGeometry>
        </mxCell>
        <mxCell id="wam6xkqnB42MoOIPIA5k-19" value="&lt;span style=&quot;white-space: normal&quot;&gt;判断ai的session是否有登录凭证&lt;/span&gt;" style="rhombus;whiteSpace=wrap;html=1;" vertex="1" parent="1">
          <mxGeometry x="330" y="91" width="80" height="100" as="geometry"/>
        </mxCell>
        <mxCell id="wam6xkqnB42MoOIPIA5k-22" value="" style="endArrow=classic;html=1;exitX=0;exitY=0.5;exitDx=0;exitDy=0;" edge="1" parent="1" source="wam6xkqnB42MoOIPIA5k-19">
          <mxGeometry width="50" height="50" relative="1" as="geometry">
            <mxPoint x="220" y="300" as="sourcePoint"/>
            <mxPoint x="90" y="140" as="targetPoint"/>
          </mxGeometry>
        </mxCell>
        <mxCell id="wam6xkqnB42MoOIPIA5k-23" value="Y" style="text;html=1;align=center;verticalAlign=middle;resizable=0;points=[];;labelBackgroundColor=#ffffff;" vertex="1" connectable="0" parent="wam6xkqnB42MoOIPIA5k-22">
          <mxGeometry x="-0.0833" y="4" relative="1" as="geometry">
            <mxPoint y="-5" as="offset"/>
          </mxGeometry>
        </mxCell>
        <mxCell id="wam6xkqnB42MoOIPIA5k-24" value="ai有凭证则返回请求资源" style="text;html=1;align=center;verticalAlign=middle;resizable=0;points=[];;autosize=1;" vertex="1" parent="1">
          <mxGeometry x="151" y="118" width="140" height="20" as="geometry"/>
        </mxCell>
        <mxCell id="wam6xkqnB42MoOIPIA5k-25" value="" style="endArrow=classic;html=1;exitX=1;exitY=0.5;exitDx=0;exitDy=0;entryX=0.33;entryY=0.153;entryDx=0;entryDy=0;entryPerimeter=0;" edge="1" parent="1" source="wam6xkqnB42MoOIPIA5k-19" target="wam6xkqnB42MoOIPIA5k-28">
          <mxGeometry width="50" height="50" relative="1" as="geometry">
            <mxPoint x="480" y="310" as="sourcePoint"/>
            <mxPoint x="640" y="140" as="targetPoint"/>
            <Array as="points"/>
          </mxGeometry>
        </mxCell>
        <mxCell id="wam6xkqnB42MoOIPIA5k-26" value="N" style="text;html=1;align=center;verticalAlign=middle;resizable=0;points=[];;labelBackgroundColor=#ffffff;" vertex="1" connectable="0" parent="wam6xkqnB42MoOIPIA5k-25">
          <mxGeometry x="-0.1111" relative="1" as="geometry">
            <mxPoint x="10" as="offset"/>
          </mxGeometry>
        </mxCell>
        <mxCell id="wam6xkqnB42MoOIPIA5k-27" value="ai无凭证则请求ecs登录接口&lt;br&gt;url传递参数是clientId和回调url&lt;br&gt;cookie传递票据参数" style="text;html=1;align=center;verticalAlign=middle;resizable=0;points=[];;autosize=1;" vertex="1" parent="1">
          <mxGeometry x="442" y="90" width="180" height="50" as="geometry"/>
        </mxCell>
        <mxCell id="wam6xkqnB42MoOIPIA5k-28" value="&lt;span style=&quot;white-space: normal&quot;&gt;根据clientId&lt;br&gt;判断ecs是否&lt;br&gt;有登录凭证&lt;/span&gt;" style="rhombus;whiteSpace=wrap;html=1;" vertex="1" parent="1">
          <mxGeometry x="630" y="113" width="100" height="184" as="geometry"/>
        </mxCell>
        <mxCell id="wam6xkqnB42MoOIPIA5k-31" value="" style="endArrow=classic;html=1;exitX=0;exitY=0.527;exitDx=0;exitDy=0;exitPerimeter=0;" edge="1" parent="1">
          <mxGeometry width="50" height="50" relative="1" as="geometry">
            <mxPoint x="630" y="206.96799999999996" as="sourcePoint"/>
            <mxPoint x="370" y="207" as="targetPoint"/>
          </mxGeometry>
        </mxCell>
        <mxCell id="wam6xkqnB42MoOIPIA5k-33" value="Y" style="text;html=1;align=center;verticalAlign=middle;resizable=0;points=[];;labelBackgroundColor=#ffffff;" vertex="1" connectable="0" parent="wam6xkqnB42MoOIPIA5k-31">
          <mxGeometry x="-0.1515" y="1" relative="1" as="geometry">
            <mxPoint y="-1" as="offset"/>
          </mxGeometry>
        </mxCell>
        <mxCell id="wam6xkqnB42MoOIPIA5k-34" value="有凭证则回调ai接口，ai记录凭证" style="text;html=1;align=center;verticalAlign=middle;resizable=0;points=[];;autosize=1;" vertex="1" parent="1">
          <mxGeometry x="424" y="182" width="190" height="20" as="geometry"/>
        </mxCell>
        <mxCell id="wam6xkqnB42MoOIPIA5k-35" value="" style="endArrow=classic;html=1;" edge="1" parent="1">
          <mxGeometry width="50" height="50" relative="1" as="geometry">
            <mxPoint x="370" y="207" as="sourcePoint"/>
            <mxPoint x="91" y="207" as="targetPoint"/>
          </mxGeometry>
        </mxCell>
        <mxCell id="wam6xkqnB42MoOIPIA5k-36" value="ai返回请求资源" style="text;html=1;align=center;verticalAlign=middle;resizable=0;points=[];;autosize=1;" vertex="1" parent="1">
          <mxGeometry x="155" y="185" width="100" height="20" as="geometry"/>
        </mxCell>
        <mxCell id="wam6xkqnB42MoOIPIA5k-37" value="" style="endArrow=classic;html=1;" edge="1" parent="1">
          <mxGeometry width="50" height="50" relative="1" as="geometry">
            <mxPoint x="730" y="205" as="sourcePoint"/>
            <mxPoint x="120" y="317" as="targetPoint"/>
            <Array as="points">
              <mxPoint x="790" y="205"/>
              <mxPoint x="790" y="320"/>
            </Array>
          </mxGeometry>
        </mxCell>
        <mxCell id="wam6xkqnB42MoOIPIA5k-38" value="N" style="text;html=1;align=center;verticalAlign=middle;resizable=0;points=[];;labelBackgroundColor=#ffffff;" vertex="1" connectable="0" parent="wam6xkqnB42MoOIPIA5k-37">
          <mxGeometry x="-0.2363" relative="1" as="geometry">
            <mxPoint x="159" y="-57" as="offset"/>
          </mxGeometry>
        </mxCell>
        <mxCell id="wam6xkqnB42MoOIPIA5k-40" value="ecs没有登录凭证则直接跳转登录页面" style="text;html=1;align=center;verticalAlign=middle;resizable=0;points=[];;autosize=1;" vertex="1" parent="1">
          <mxGeometry x="264" y="294" width="210" height="20" as="geometry"/>
        </mxCell>
        <mxCell id="wam6xkqnB42MoOIPIA5k-41" value="登录成功则跳转ai的回调地址" style="rounded=0;whiteSpace=wrap;html=1;direction=south;" vertex="1" parent="1">
          <mxGeometry x="60" y="297" width="60" height="90" as="geometry"/>
        </mxCell>
        <mxCell id="wam6xkqnB42MoOIPIA5k-44" value="ai的回调地址" style="text;html=1;align=center;verticalAlign=middle;resizable=0;points=[];;autosize=1;" vertex="1" parent="1">
          <mxGeometry x="181" y="347" width="80" height="20" as="geometry"/>
        </mxCell>
        <mxCell id="wam6xkqnB42MoOIPIA5k-46" value="" style="endArrow=classic;html=1;exitX=0.879;exitY=0.833;exitDx=0;exitDy=0;exitPerimeter=0;entryX=0.376;entryY=0.027;entryDx=0;entryDy=0;entryPerimeter=0;" edge="1" parent="1" source="wam6xkqnB42MoOIPIA5k-50" target="wam6xkqnB42MoOIPIA5k-45">
          <mxGeometry width="50" height="50" relative="1" as="geometry">
            <mxPoint x="660" y="403" as="sourcePoint"/>
            <mxPoint x="390" y="403" as="targetPoint"/>
            <Array as="points"/>
          </mxGeometry>
        </mxCell>
        <mxCell id="wam6xkqnB42MoOIPIA5k-47" value="ai返回请求资源" style="text;html=1;align=center;verticalAlign=middle;resizable=0;points=[];;autosize=1;" vertex="1" parent="1">
          <mxGeometry x="164" y="381" width="100" height="20" as="geometry"/>
        </mxCell>
        <mxCell id="wam6xkqnB42MoOIPIA5k-48" value="" style="endArrow=classic;html=1;exitX=0.789;exitY=-0.03;exitDx=0;exitDy=0;exitPerimeter=0;entryX=0.25;entryY=1;entryDx=0;entryDy=0;" edge="1" parent="1" source="wam6xkqnB42MoOIPIA5k-41" target="wam6xkqnB42MoOIPIA5k-50">
          <mxGeometry width="50" height="50" relative="1" as="geometry">
            <mxPoint x="365" y="420" as="sourcePoint"/>
            <mxPoint x="650" y="368" as="targetPoint"/>
            <Array as="points"/>
          </mxGeometry>
        </mxCell>
        <mxCell id="wam6xkqnB42MoOIPIA5k-49" value="" style="endArrow=none;html=1;" edge="1" parent="1" source="wam6xkqnB42MoOIPIA5k-50">
          <mxGeometry width="50" height="50" relative="1" as="geometry">
            <mxPoint x="680" y="520" as="sourcePoint"/>
            <mxPoint x="680" y="297" as="targetPoint"/>
          </mxGeometry>
        </mxCell>
        <mxCell id="wam6xkqnB42MoOIPIA5k-50" value="登录成功" style="rounded=0;whiteSpace=wrap;html=1;direction=south;" vertex="1" parent="1">
          <mxGeometry x="665" y="352" width="30" height="58" as="geometry"/>
        </mxCell>
        <mxCell id="wam6xkqnB42MoOIPIA5k-51" value="" style="endArrow=none;html=1;" edge="1" parent="1" target="wam6xkqnB42MoOIPIA5k-50">
          <mxGeometry width="50" height="50" relative="1" as="geometry">
            <mxPoint x="680" y="520" as="sourcePoint"/>
            <mxPoint x="680" y="297" as="targetPoint"/>
          </mxGeometry>
        </mxCell>
        <mxCell id="wam6xkqnB42MoOIPIA5k-54" value="回调ai接口，传递登录凭证" style="text;html=1;align=center;verticalAlign=middle;resizable=0;points=[];;autosize=1;" vertex="1" parent="1">
          <mxGeometry x="422" y="383" width="160" height="20" as="geometry"/>
        </mxCell>
        <mxCell id="wam6xkqnB42MoOIPIA5k-55" value="" style="endArrow=classic;html=1;exitX=0.345;exitY=0.833;exitDx=0;exitDy=0;exitPerimeter=0;" edge="1" parent="1" source="wam6xkqnB42MoOIPIA5k-45">
          <mxGeometry width="50" height="50" relative="1" as="geometry">
            <mxPoint x="350" y="401" as="sourcePoint"/>
            <mxPoint x="90" y="401" as="targetPoint"/>
            <Array as="points"/>
          </mxGeometry>
        </mxCell>
        <mxCell id="wam6xkqnB42MoOIPIA5k-45" value="ai记录凭证" style="rounded=0;whiteSpace=wrap;html=1;direction=south;" vertex="1" parent="1">
          <mxGeometry x="355" y="381" width="30" height="58" as="geometry"/>
        </mxCell>
        <mxCell id="wam6xkqnB42MoOIPIA5k-58" value="" style="endArrow=none;html=1;entryX=1;entryY=0.5;entryDx=0;entryDy=0;" edge="1" parent="1" target="wam6xkqnB42MoOIPIA5k-45">
          <mxGeometry width="50" height="50" relative="1" as="geometry">
            <mxPoint x="370" y="520" as="sourcePoint"/>
            <mxPoint x="370" y="191" as="targetPoint"/>
          </mxGeometry>
        </mxCell>
      </root>
    </mxGraphModel>
  </diagram>
</mxfile>
